<mxfile host="app.diagrams.net" modified="2023-10-23T06:00:12.347Z" agent="Mozilla/5.0 (Macintosh; Intel Mac OS X 10_15_7) AppleWebKit/537.36 (KHTML, like Gecko) Chrome/118.0.0.0 Safari/537.36" version="21.7.5" etag="vgbDtkg3c7vLePYJrQRq" type="github">
  <diagram name="第 1 页" id="NJp-ny7Sd2MhftvuUGMo">
    <mxGraphModel>
      <root>
        <mxCell id="0" />
        <mxCell id="1" parent="0" />
      </root>
    </mxGraphModel>
  </diagram>
</mxfile>
